<svg width="343" height="256" viewBox="0 0 343 256" fill="none" xmlns="http://www.w3.org/2000/svg">
<path d="M154 11.6001C149.6 12.5334 140.933 15.8668 134.8 18.9334L123.467 24.2668L116.133 22.5334C106.133 20.0001 89.1999 20.4001 79.3332 23.3334C58.5332 29.4668 41.5999 42.1334 29.7332 60.2668C17.8665 78.6668 13.9999 92.5334 14.1332 116C14.2665 130.8 14.6665 134 18.2665 144.133C23.8665 160.4 31.0665 172.533 41.3332 182.667C60.6665 202 86.9332 210.8 113.6 206.667C123.6 205.2 124 205.2 129.733 208.533C132.933 210.533 140 213.6 145.467 215.6C154.533 218.933 157.067 219.2 176.267 219.2C195.467 219.333 197.333 219.6 200.267 222.133C209.467 230.533 220.667 236.4 233.867 240C275.333 251.067 316.8 224.8 329.467 179.333C330.667 175.2 331.333 166.267 331.333 156C331.2 142.133 330.667 137.867 328.133 130.667C322.8 115.6 317.2 106.4 306.533 95.6001C298.267 87.3334 294.133 84.2668 285.2 80.1334C279.067 77.3334 272 74.5334 269.6 74.0001C266 73.2001 264.667 71.8668 261.067 64.9334C252.933 48.8001 239.067 33.6001 223.333 23.7334C202.667 10.6668 176.667 6.13343 154 11.6001ZM197.2 31.4668C217.467 38.4001 234.533 54.2668 244.667 75.2001C247.867 82.0001 251.333 88.2668 252.267 89.0668C253.2 89.7334 257.467 91.0668 261.733 91.8668C277.467 94.8001 291.6 104.4 300.667 118.533C310.133 133.6 311.333 138 311.333 160C311.333 178.8 311.2 179.6 307.2 188C301.067 201.067 288.8 213.6 276.133 219.6C266.667 224.133 265.2 224.533 253.333 224.533C234.267 224.533 225.733 221.067 210.8 207.333C205.6 202.533 200.533 198.667 199.6 198.667C198.8 198.667 194.4 199.6 190 200.667C170.267 205.467 153.6 202.133 128.8 188.533C125.333 186.533 123.867 186.533 112.133 188.4C101.2 190.267 97.9999 190.267 89.9999 188.8C77.7332 186.4 72.7999 184.533 64.2665 178.933C51.9999 170.933 41.1999 156.533 34.5332 139.333C31.8665 132.667 30.3999 119.067 31.0665 108.8C33.0665 80.8001 48.7999 56.8001 72.6665 45.3334C87.9999 37.8668 103.733 36.9334 120.8 42.4001C123.733 43.3334 125.867 43.3334 127.6 42.1334C147.333 30.8001 155.333 28.2668 173.2 28.1334C184.933 28.0001 188.667 28.5334 197.2 31.4668Z" fill="#EC682A"/>
<path d="M92.9331 61.7334C81.9998 65.2001 73.3331 78.6668 70.5331 96.1334C68.2664 110.4 69.7331 134.533 73.3331 144.933C79.4664 162.667 93.3331 171.733 108.933 168C118.133 165.733 120 163.867 120 156.8C120 149.867 119.333 149.067 114.8 150.8C108.4 153.333 97.7331 152.8 94.5331 150C89.5998 145.467 86.7998 138 85.4664 126.267C83.0664 105.6 86.9331 84.8001 94.5331 78.1334C97.9998 74.9334 107.066 74.8001 112.666 77.8668L116.666 80.0001L118.933 73.2001C120.266 69.3334 120.933 65.7334 120.533 65.0668C117.733 60.5334 102.8 58.6668 92.9331 61.7334Z" fill="#EC682A"/>
<path d="M162.933 62.267C156.133 65.6003 150.133 73.6003 146.533 84.267C143.733 92.9337 143.333 96.267 143.333 114.667C143.333 131.067 143.866 136.8 145.733 142.667C150.4 156.667 158.266 164.667 170.8 168C182.8 171.2 196.4 164.667 203.6 152.4C211.2 139.334 214.133 112.534 210 93.7337C204.4 68.9337 195.6 60.0003 176.533 60.0003C170.8 60.0003 165.733 60.9337 162.933 62.267ZM184.133 77.3337C185.466 78.1337 188.266 81.867 190.266 85.7337C193.866 92.4003 194 93.467 194 113.334C194 130 193.6 135.2 191.6 140.134C185.466 156.134 171.466 157.334 163.333 142.534C159.6 135.6 159.466 134.934 159.466 116C159.466 93.7337 161.6 84.9337 168.133 79.3337C172.533 75.7337 179.466 74.9337 184.133 77.3337Z" fill="#EC682A"/>
<path d="M248.8 108.667C243.467 110.534 236 116.8 236 119.334C236 120.134 237.467 122.267 239.2 123.867L242.533 126.934L246.4 124.134C251.2 120.8 258 120.534 261.067 123.6C262.8 125.334 263.333 128 263.2 134.8C262.933 145.067 260.667 149.867 244.8 173.867C237.333 185.067 236 188.134 236 192.934V198.667H257.333H278.667V192.267C278.667 186.534 278.4 185.867 275.733 185.867C257.733 185.734 252 185.2 252 183.6C252 182.8 255.067 177.734 258.667 172.667C270.267 156.4 272.267 153.2 274.933 144.8C280 129.6 276 115.067 265.333 109.6C258.533 106.267 256 106 248.8 108.667Z" fill="#EC682A"/>
</svg>
