<svg width="371" height="331" viewBox="0 0 371 331" fill="none" xmlns="http://www.w3.org/2000/svg">
<path d="M215.333 23.6C213.866 24 205.733 27.6 197.333 31.6C175.6 42 174.266 42.4 158.666 43.2C133.333 44.4 122.266 50 96.6664 74.6667C90.7997 80.2667 82.5331 87.0667 78.2664 89.7333C68.7997 95.8667 59.0664 104.667 56.5331 109.6C54.6664 113.2 54.2664 113.333 43.1997 113.333C33.0664 113.333 31.5997 113.6 28.6664 116.533C26.9331 118.267 25.0664 121.333 24.5331 123.2C23.9997 125.333 27.0664 139.867 33.3331 164.267C38.5331 185.067 43.3331 204.133 43.9997 206.667C47.3331 221.467 58.9331 265.2 60.1331 268.4C62.5331 274.133 70.1331 277.333 81.3331 277.333H90.7997L93.3331 283.2C104.133 308.667 137.066 315.067 156.533 295.467C159.6 292.533 163.466 287.2 165.066 283.6L168 277.333H183.866H199.6L201.866 283.2C204.8 290.8 213.466 299.467 222.266 303.6C231.466 307.867 243.733 308 253.2 304C261.066 300.533 271.066 290.533 274.133 282.8L276.266 277.333H286.266C296.8 277.333 303.866 274.667 306.533 269.6C307.2 268.267 312.266 249.067 318 226.667C323.6 204.267 331.466 172.8 335.466 156.8C343.333 125.6 343.733 121.333 338.266 116.267C335.866 114 333.333 113.333 324.666 113.067L314.133 112.667L312.533 100C308.933 71.8667 299.333 56 286 56C283.6 56 279.466 54.2667 275.733 51.6C236.8 24.4 228.266 20.4 215.333 23.6ZM230.8 44.1333C236.266 46.8 243.466 51.6 258.533 62.4C270.666 71.0667 274.666 73.3333 279.866 74.1333C282.8 74.6667 286 76 287.066 77.2C290.4 80.9333 293.333 92.2667 293.6 102.667L294 112.667L187.733 113.067C103.066 113.333 81.3331 113.067 81.3331 111.733C81.3331 110.8 84.1331 108.267 87.7331 106C91.1997 103.867 100.666 96 108.666 88.6667C134 65.4667 138.133 63.3333 161.066 62C178.266 60.9333 180.4 60.4 200.666 50.6667C223.466 39.7333 222.133 40 230.8 44.1333ZM321.866 133.067C322.266 133.733 321.066 140.133 319.2 147.467C317.333 154.667 314.933 164.133 313.866 168.267C312.8 172.533 311.066 179.6 310 184C308.933 188.4 307.066 195.733 305.866 200.267C298.4 230.667 292.4 253.6 291.333 256.267C290.666 258.133 288.8 258.667 283.866 258.667H277.333L273.466 250.933C265.866 236 254.133 228.667 238 228.8C221.6 228.933 209.6 236.533 202 251.6L198.533 258.667H183.333H168.133L165.466 252.8C162 244.8 153.066 235.467 145.6 231.733C140.8 229.467 136.933 228.667 129.333 228.667C112.4 228.667 100.133 236.667 93.0664 252.4C90.2664 258.667 90.1331 258.667 83.8664 258.667C78.6664 258.667 77.0664 258.133 75.9997 255.867C75.1997 254.4 69.4664 232.667 63.1997 207.6C57.0664 182.533 51.3331 159.6 50.6664 156.667C47.4664 144.533 45.4664 134.267 46.1331 133.2C47.0664 131.733 320.933 131.6 321.866 133.067ZM139.333 249.733C145.733 253.333 149.333 259.867 149.333 267.733C149.333 279.6 141.066 288 129.6 288C115.2 288 105.466 275.467 109.2 261.733C112.666 248.933 127.466 243.067 139.333 249.733ZM249.066 250.267C254.8 254.533 257.733 259.467 258.266 266.267C259.333 278.667 250.666 288 238 288C215.466 288 209.333 258 230 248.533C235.2 246.133 244.666 246.933 249.066 250.267Z" fill="#EC682A"/>
</svg>
