<svg width="268" height="272" viewBox="0 0 268 272" fill="none" xmlns="http://www.w3.org/2000/svg">
<g clip-path="url(#clip0_500_3868)">
<path d="M185.519 90.5107C198.967 73.7964 212.191 57.3595 225.415 40.9226C225.213 40.5503 225.012 40.178 224.811 39.8057C222.408 40.4151 219.98 40.9401 217.608 41.653C213.786 42.8019 210.029 44.1715 206.193 45.2687C202.09 46.4425 198.307 44.3747 197.112 40.5122C195.863 36.4735 197.467 32.4261 201.478 31.1381C216.352 26.3609 231.248 21.6322 246.252 17.2884C252.289 15.5408 256.04 18.7575 255.798 25.1797C255.241 39.9793 254.448 54.7726 253.527 69.5545C253.167 75.3372 249.867 78.3851 245.144 78.1005C240.499 77.8206 237.975 74.379 238.015 68.5132C238.055 62.4229 238.024 56.3322 238.024 49.5869C236.941 50.6379 235.861 51.4759 235.038 52.5171C215.727 76.9486 196.451 101.409 177.148 125.847C171.502 132.995 168.462 133.361 161.577 127.293C144.214 111.987 126.955 96.5629 109.648 81.1945C108.045 79.7711 106.391 78.4054 104.294 76.6147C96.6013 85.157 89.0547 93.493 81.5566 101.872C64.5693 120.856 47.6082 139.864 30.6311 158.857C26.6891 163.267 22.5016 164.323 19.3889 161.725C15.8543 158.774 15.8438 153.703 19.6319 149.41C45.5117 120.085 71.4179 90.7822 97.369 61.5196C101.62 56.7259 105.656 56.8448 110.68 61.3182C129.574 78.1418 148.508 94.9211 167.972 112.201C173.838 104.949 179.567 97.8687 185.519 90.5107Z" fill="#EC682A"/>
<path d="M210.173 211C210.173 188.836 210.171 167.171 210.174 145.507C210.176 135.96 212.24 133.937 221.972 133.934C230.304 133.932 238.637 133.89 246.969 133.951C253.151 133.997 255.85 136.62 255.856 142.749C255.893 177.912 255.892 213.075 255.854 248.238C255.847 254.448 252.951 257.388 246.634 257.48C237.636 257.611 228.634 257.621 219.638 257.47C212.689 257.353 210.198 254.604 210.182 247.496C210.154 235.497 210.174 223.499 210.173 211ZM225.86 164.503C225.86 190.241 225.86 215.979 225.86 241.646C231.079 241.646 235.485 241.646 240.279 241.646C240.279 239.446 240.279 237.636 240.279 235.825C240.279 209.831 240.333 183.836 240.253 157.842C240.221 147.566 242.021 148.778 230.973 148.52C227.24 148.433 225.358 149.333 225.79 153.514C226.13 156.811 225.859 160.172 225.86 164.503Z" fill="#EC692D"/>
<path d="M125.111 252.71C122.384 254.56 119.849 257.135 117.177 257.286C107.883 257.813 98.5398 257.626 89.2199 257.46C83.0078 257.349 80.4787 254.63 80.4731 248.444C80.4412 213.316 80.4346 178.187 80.4708 143.059C80.4776 136.487 82.9963 134 89.5393 133.955C98.6955 133.891 107.853 133.891 117.009 133.956C122.56 133.996 125.174 136.465 125.815 142.028C125.91 142.852 125.934 143.689 125.934 144.52C125.939 178.816 125.948 213.112 125.909 247.407C125.907 249.046 125.472 250.685 125.111 252.71ZM110.335 237.39C110.335 210.589 110.369 183.788 110.317 156.987C110.299 147.588 111.637 148.898 101.738 148.482C96.8983 148.278 95.5265 149.846 95.5678 154.658C95.7878 180.292 95.5679 205.93 95.7153 231.565C95.7862 243.892 93.2909 241.747 106.666 242.081C109.514 242.152 110.69 241.164 110.335 237.39Z" fill="#EC692C"/>
<path d="M160.063 169.944C167.551 169.946 174.552 169.839 181.548 169.983C188.485 170.127 190.722 172.539 190.726 179.519C190.741 202.347 190.742 225.176 190.724 248.004C190.718 254.863 188.362 257.372 181.453 257.477C172.624 257.612 163.789 257.601 154.96 257.482C148.107 257.39 145.326 254.904 145.284 248.183C145.139 225.189 145.144 202.193 145.287 179.198C145.327 172.743 148.123 170.267 154.575 169.971C156.238 169.895 157.907 169.949 160.063 169.944ZM167.466 184.818C165.383 184.818 163.299 184.818 161.218 184.818C161.218 204.321 161.218 223.026 161.218 242.048C164.27 242.048 166.944 241.797 169.553 242.103C174.248 242.652 175.917 241.068 175.811 236.119C175.499 221.468 175.701 206.806 175.699 192.149C175.697 184.822 175.694 184.822 167.466 184.818Z" fill="#EC682C"/>
<path d="M59.73 253.425C57.024 254.836 54.5561 256.705 52.0167 256.808C42.8691 257.179 33.697 257 24.5347 256.94C18.4592 256.9 15.3353 253.827 15.2863 247.702C15.1985 236.707 15.2018 225.711 15.2863 214.717C15.3325 208.708 17.9157 206.189 23.7946 206.168C33.1238 206.135 42.4533 206.124 51.7823 206.174C58.2024 206.208 60.9017 208.872 60.9358 215.272C60.9937 226.1 60.9973 236.929 60.9062 247.757C60.8913 249.531 60.2741 251.3 59.73 253.425ZM45.2897 228.537C45.2897 226.116 45.2897 223.694 45.2897 221.188C39.8932 221.188 35.1887 221.188 30.3623 221.188C30.3623 228.234 30.3623 234.934 30.3623 241.707C35.4332 241.707 40.1568 241.707 45.29 241.707C45.29 237.432 45.29 233.477 45.2897 228.537Z" fill="#EC692C"/>
</g>
<defs>
<clipPath id="clip0_500_3868">
<rect width="268" height="272" fill="white"/>
</clipPath>
</defs>
</svg>
