<svg width="220" height="359" viewBox="0 0 220 359" fill="none" xmlns="http://www.w3.org/2000/svg">
<path d="M144 19.8665C132 23.5998 124 32.5332 124 42.3998C124 49.5998 126.533 58.6665 128.533 58.6665C131.867 58.6665 152.667 49.1998 155.733 46.3998C162.667 39.7332 164.267 32.7998 160.533 24.7998C157.6 18.9332 152.4 17.3332 144 19.8665Z" fill="#EC682A"/>
<path d="M72.6673 23.4666C63.8673 25.6 61.334 30 61.334 43.0666C61.334 56.9333 69.0673 68 82.0007 72.5333C89.2007 75.2 112.134 80.2666 112.934 79.4666C114.534 78 114.801 62.5333 113.467 55.4666C110.801 40.9333 104.934 32 94.4007 26.5333C89.4673 24 77.4673 22.2666 72.6673 23.4666Z" fill="#EC682A"/>
<path d="M57.7335 96.2666C55.6002 98.5333 54.5335 102.4 53.4668 111.333C52.6668 117.867 51.2002 129.867 50.1335 138C49.0668 146 47.4668 157.733 46.6668 164C45.8668 170.267 44.6668 178.933 43.8668 183.333C43.2002 187.733 42.0002 196.133 41.3335 202C40.6668 207.867 39.2002 218.933 38.1335 226.667C35.4668 245.867 33.7335 259.333 31.3335 277.333C30.1335 285.733 28.6668 296.533 27.8668 301.333C27.0668 306 26.1335 314.933 25.7335 320.933C24.4002 339.067 15.4668 337.333 111.2 337.333C156 337.333 193.334 336.8 194.134 336.267C194.934 335.733 196.267 334 197.067 332.533C198.667 329.6 198.267 326.667 192.667 284.667C190.534 269.333 189.2 258.8 184.8 225.333C183.734 216.933 181.867 203.067 180.667 194.667C179.467 186.267 177.334 170 175.867 158.667C173.334 138.8 170.4 118 168.534 105.333C168 102 166.4 97.9999 164.934 96.2666L162.267 93.3333H111.334H60.4002L57.7335 96.2666ZM102.4 118.533C103.2 128.533 102 128.933 94.8002 121.067C91.2002 117.2 88.5335 113.467 88.9335 112.933C89.3335 112.4 92.4002 112 95.7335 112.267L102 112.667L102.4 118.533ZM133.867 113.067C134.8 114.667 124.534 125.867 122.934 124.8C121.2 123.733 120.667 114.4 122.267 112.933C123.467 111.6 133.067 111.733 133.867 113.067ZM85.7335 139.467C92.1335 146.133 97.3335 152.133 97.3335 152.933C97.3335 154.8 65.4668 188 63.7335 188C62.8002 188 62.6668 185.6 63.0668 181.6C64.0002 172.933 67.7335 145.6 68.5335 140.667C68.9335 138.4 69.6002 134.4 70.0002 131.6C70.5335 128.533 71.4668 126.667 72.4002 126.933C73.3335 127.2 79.2002 132.8 85.7335 139.467ZM152.667 128.267C153.2 130.133 158.4 169.2 159.6 180.933C160.134 185.467 159.867 188 158.934 188C157.6 188 126.4 155.6 125.6 153.333C125.067 151.867 149.067 126.667 150.934 126.667C151.6 126.667 152.4 127.467 152.667 128.267ZM102.4 213.333C102.134 234.133 101.467 246 100.667 246.267C99.8668 246.533 94.1335 242.8 88.0002 237.867C81.7335 233.067 73.8668 227.067 70.4002 224.4C66.8002 221.867 64.0002 219.2 64.0002 218.533C64.0002 216.267 100.534 178.667 101.6 179.733C102.267 180.4 102.534 195.467 102.4 213.333ZM141.734 199.2L159.867 218.267L156.934 220.933C150.8 226.4 124 246.667 122.8 246.667C120.4 246.667 120 241.867 120 213.333C120 185.467 120.4 180 122.534 180C123.067 180 131.734 188.667 141.734 199.2ZM69.2002 247.733C75.4668 252.667 83.8668 259.067 87.7335 262C91.4668 264.8 94.6668 267.6 94.6668 268.133C94.6668 268.933 81.8668 279.733 73.2002 286.133C71.3335 287.467 65.0668 292.267 59.4668 296.533C53.4668 301.067 48.8002 303.867 48.1335 303.2C47.4668 302.533 47.4668 298.4 48.1335 294C48.8002 289.6 50.5335 276.4 52.0002 264.667C54.9335 242.667 55.6002 238.667 56.9335 238.667C57.3335 238.667 62.9335 242.667 69.2002 247.733ZM169.2 250.667C170 256.133 171.334 266 172 272.667C172.667 279.2 174 288.4 174.8 293.067C177.067 305.2 175.6 305.733 164.4 297.067C159.334 293.2 149.067 285.333 141.6 279.467C134.134 273.733 128.4 268.533 128.8 267.867C130.534 265.067 166 238.8 166.934 239.733C167.334 240.267 168.4 245.2 169.2 250.667ZM129.467 294.267C133.067 297.067 140.4 302.8 145.6 306.933C150.934 311.2 155.734 314.667 156.4 314.667C156.934 314.667 157.334 315.6 157.334 316.667C157.334 319.733 122 319.6 120.8 316.533C119.734 313.733 119.734 291.333 120.934 290.267C122.267 288.933 122.4 288.933 129.467 294.267ZM101.067 304.267L100.667 318L83.7335 318.4C69.3335 318.667 66.6668 318.4 66.6668 316.8C66.6668 314.667 96.8002 290.933 99.7335 290.8C101.067 290.667 101.334 293.867 101.067 304.267Z" fill="#EC682A"/>
</svg>
