<svg width="250" height="255" viewBox="0 0 250 255" fill="none" xmlns="http://www.w3.org/2000/svg">
<path d="M123.187 6.56233C123.857 6.56537 124.526 6.56841 125.216 6.57155C158.499 6.79374 188.21 19.5998 212 42.9998C226.418 58.6331 236.37 77.6058 242 97.9998C242.181 98.6424 242.362 99.285 242.549 99.9471C250.006 127.768 244.529 159.704 230.562 184.562C213.89 213.07 189.292 233.254 157.664 243.031C143.339 246.777 126.31 246.695 113.144 239.336C104.402 233.89 99.0427 225.785 96.4842 215.816C94.6162 204.955 95.5535 196.499 100.867 186.98C105.193 180.935 110.848 177.834 118 176C118 174.35 118 172.7 118 171C116.927 170.797 116.927 170.797 115.832 170.59C99.8601 167.139 87.1101 158.565 77.6248 145.25C70.6202 134.146 67.8079 122.55 67.6873 109.562C67.6583 108.525 67.6293 107.488 67.5994 106.42C67.5631 102.067 67.6428 98.8106 69.4099 94.7967C73.3872 92.0372 77.0365 92.4611 81.7498 92.6873C82.638 92.7099 83.5261 92.7324 84.4412 92.7557C86.6291 92.8145 88.8136 92.8966 90.9998 92.9998C90.9684 91.4409 90.9684 91.4409 90.9363 89.8504C90.8638 85.9891 90.818 82.1278 90.7801 78.2659C90.76 76.5956 90.7327 74.9253 90.698 73.2552C90.6494 70.8522 90.6268 68.4501 90.6092 66.0467C90.5885 65.3018 90.5679 64.5568 90.5466 63.7893C90.5451 60.298 90.729 58.3648 92.8367 55.5242C95.7678 53.4586 97.4848 53.4872 101 53.9998C103.149 55.0303 103.149 55.0303 105 56.9998C105.425 59.7707 105.605 62.1728 105.609 64.9491C105.625 65.6341 105.64 66.3191 105.657 67.0249C105.709 69.5787 105.727 72.1331 105.75 74.6873C105.832 80.4005 105.915 86.1136 106 91.9998C118.21 91.9998 130.42 91.9998 143 91.9998C143.17 80.9908 143.17 80.9908 143.298 69.9813C143.327 68.5968 143.358 67.2124 143.39 65.828C143.392 65.1143 143.393 64.4006 143.394 63.6654C143.492 60.2335 143.761 58.3176 145.85 55.5418C148 53.9998 148 53.9998 151 53.4998C154.633 54.1054 155.741 55.1557 158 57.9998C159.506 61.012 159.121 64.1127 159.097 67.4139C159.095 68.5084 159.095 68.5084 159.093 69.6249C159.088 71.9583 159.075 74.2915 159.062 76.6248C159.057 78.2056 159.053 79.7863 159.049 81.367C159.038 85.2447 159.02 89.1222 159 92.9998C160.253 92.9534 161.506 92.907 162.797 92.8592C164.448 92.8217 166.099 92.7853 167.75 92.7498C168.575 92.7163 169.4 92.6828 170.25 92.6483C176.311 92.5505 176.311 92.5505 179.515 94.6405C184.542 102.63 182.465 115.707 180.621 124.519C179.703 128.185 178.576 131.564 177 135C176.623 135.83 176.247 136.66 175.859 137.515C168.456 152.407 156.656 162.414 141.191 168.273C139.142 168.953 137.102 169.511 135 170C134.986 170.629 134.971 171.258 134.957 171.906C134.597 178.364 133.394 183.119 129 188C126.276 190.12 123.329 191.491 120.101 192.726C115.679 194.425 114.035 195.739 112 200C110.655 207.956 111.692 214.345 116.301 220.972C121.701 227.416 128.165 228.547 136.129 229.293C156.672 230.158 176.097 219.088 192 207C192.786 206.411 193.572 205.822 194.383 205.215C213.263 189.82 225.436 164.108 228.762 140.293C229.323 132.534 229.206 124.771 229 117C228.982 116.039 228.964 115.079 228.945 114.09C227.538 89.9705 212.36 64.9854 195 48.9998C170.314 27.9191 142.982 21.2984 111 22.9998C86.1419 25.0665 61.1224 39.4837 45.0818 58.3514C29.6723 77.953 21.3052 98.7723 19.8372 123.768C19.7813 124.657 19.7254 125.545 19.6678 126.461C19.6332 127.26 19.5986 128.06 19.563 128.884C18.9998 131 18.9998 131 17.1807 132.76C14.0001 134.568 11.5873 134.391 7.99979 134C6.30448 132.992 6.30448 132.992 4.99979 131C4.7214 128.162 4.62195 125.582 4.68729 122.75C4.70002 121.944 4.71275 121.137 4.72586 120.306C5.45415 89.7544 18.0623 63.9376 38.9998 41.9998C39.5134 41.4571 40.027 40.9143 40.5562 40.3551C44.6999 36.0764 49.0586 32.4715 53.9373 29.0623C54.6731 28.5473 55.4089 28.0322 56.167 27.5015C76.2658 13.7481 98.8051 6.3681 123.187 6.56233Z" fill="#EC682A"/>
<path d="M83 108C110.39 108 137.78 108 166 108C166 122.073 163.694 133.325 153.875 143.875C143.724 153.354 132.844 155.5 119.496 155.273C110.05 154.879 102.703 150.497 96 144C86.0689 132.796 83 122.948 83 108Z" fill="#F7F7F9"/>
</svg>
