<svg width="282" height="347" viewBox="0 0 282 347" fill="none" xmlns="http://www.w3.org/2000/svg">
<path d="M114.667 21.7332C110 24.1332 109.334 28.7998 112.534 37.3332C114.8 43.1998 115.334 47.5998 115.334 59.9998C115.334 76.5332 113.734 83.8665 106.534 100.666C97.8671 121.2 78.2671 149.733 60.2671 168.266C40.2671 188.933 37.3337 192.4 31.6004 201.6C24.4004 213.066 20.8004 223.333 18.5337 238.133C14.8004 262.666 24.9337 292.267 43.3337 310.933C58.5337 326.4 81.3337 337.067 101.467 338.267C112 338.933 113.2 338.8 115.867 336.133C120.667 331.333 119.467 327.333 110.8 318.8C100.8 308.933 97.3337 301.333 97.3337 289.067C97.3337 279.2 99.2004 273.2 104.534 266.267C109.334 259.866 113.067 251.066 114.134 242.933C114.667 238.8 115.734 236 116.667 236C118.667 236 126.534 244.533 131.2 251.6C132.934 254.4 135.067 260.133 136 264.267C139.067 279.867 149.334 289.333 163.067 289.333C171.334 289.333 177.067 287.2 182.934 281.733C186.4 278.4 186.4 278.4 187.867 281.067C190.134 285.467 189.6 292.133 186.134 299.333C183.334 305.467 180.534 308.4 164.8 322.133C159.334 326.933 158.534 331.867 162.667 336C164.8 338.133 167.067 338.667 174.4 338.667C198.934 338.667 228.4 322.933 243.467 302C256.4 283.733 260.534 270.933 260.534 248.666C260.534 225.866 256 212.266 242.267 194C237.334 187.2 234 184.266 230.667 183.2C223.6 180.933 220.534 183.733 218.134 194.933C215.867 205.333 197.6 211.6 186.267 205.866C180.267 202.8 177.467 200 174.534 194.4C171.334 188.266 171.467 183.333 174.667 177.333C186.267 155.733 190.134 137.866 187.867 116.133C186.134 97.7332 180.934 85.0665 167.2 64.5332C156 47.8665 130.534 23.9998 120.667 20.9332C119.2 20.3998 116.534 20.7998 114.667 21.7332ZM144.267 64.7998C159.6 84.9332 165.467 95.5998 168.8 109.333C173.067 127.066 169.334 149.866 159.467 166C155.6 172.266 155.334 173.466 155.334 186C155.334 200 156.8 204.4 164.534 213.2C171.2 220.8 184.934 226.666 195.867 226.666C205.067 226.666 218.8 222 224.934 216.666C228 214.133 230.934 212 231.6 212C232.934 212 237.067 220 239.734 227.333C248.667 252.266 240.134 282.4 218.8 301.467C211.867 307.6 203.067 312.933 201.867 311.6C201.467 311.333 202.534 308.133 204.134 304.533C207.6 296.667 208.267 280.8 205.467 272.667C202.8 265.2 187.334 249.333 182.8 249.333C177.067 249.333 174.534 252.4 172.8 261.2C171.6 267.467 168.4 270.667 163.334 270.667C158.134 270.667 155.2 266.8 153.867 258.4C151.734 245.066 142.8 233.333 116.8 209.733C109.334 202.933 106.8 201.333 103.2 201.333C99.8671 201.333 98.1337 202.266 96.4004 204.8C94.4004 207.866 94.4004 209.333 95.7337 217.466C98.8004 235.6 97.3337 243.866 88.9337 256.533C78.9337 271.333 76.1337 289.6 81.2004 306.4C83.3337 313.333 83.4671 314.667 81.8671 314.667C74.2671 314.667 53.6004 297.2 45.8671 284.4C38.6671 272.533 36.9337 265.733 36.8004 249.333C36.5337 225.333 41.6004 214.666 63.8671 191.333C97.0671 156.8 116.667 128 127.467 97.9998C130 90.9332 134.667 67.5998 134.667 61.8665C134.667 55.1998 137.6 56.1332 144.267 64.7998Z" fill="#EC682A"/>
</svg>
