<svg width="352" height="368" viewBox="0 0 352 368" fill="none" xmlns="http://www.w3.org/2000/svg">
<path d="M72.3997 32.6665C63.4664 36.5331 63.9997 27.4664 63.9997 185.866C63.9997 326.266 63.9997 329.333 61.4664 330.666C59.9997 331.333 51.3331 332 42.2664 332C23.733 332 21.333 333.066 21.333 341.066C21.333 349.866 12.7997 349.333 162.933 349.333C309.2 349.333 301.066 349.733 303.333 342.666C304.133 340 302.133 334.8 299.466 333.066C298.666 332.533 291.066 332 282.666 332C274.266 332 266 331.6 264.266 331.2L261.333 330.4L261.6 244.133L262 158L272.133 157.6C282.133 157.2 282.4 157.333 283.2 160.666C283.733 162.533 284 193.333 284 229.2C283.866 299.333 283.866 299.866 290.8 306.266C295.2 310.266 300.4 312 307.733 312C315.733 312 322.8 307.466 326.933 299.6L330 294V210V126L322.933 111.866C319.066 104.133 314.533 96.3998 312.933 94.9331C311.333 93.4664 303.466 89.3331 295.333 85.9998C274.266 77.0664 269.066 74.7998 265.333 72.9331C262.133 71.3331 262 70.6665 261.333 55.7331C260.666 41.5998 260.4 39.8665 257.466 36.7998C255.6 34.9331 252 32.7998 249.466 31.9998C246.533 31.1998 212.266 30.6665 160.666 30.6665C92.1331 30.7998 75.8664 31.0665 72.3997 32.6665ZM243.733 189.333C244 319.2 243.866 328.8 241.733 330.4C240 331.6 222 332 162.533 332C120.133 332 84.6664 331.6 83.4664 331.2C81.5997 330.4 81.3331 316.8 81.3331 190.8C81.3331 114 81.7331 50.6665 82.2664 50.2665C82.6664 49.7331 119.2 49.4665 163.2 49.5998L243.333 49.9998L243.733 189.333ZM291.333 104.666L301.466 109.2L306.666 120.533L312 131.733L311.866 208.8C311.733 251.333 311.333 287.466 310.8 289.333C309.733 293.066 304.4 294.666 302.533 291.733C301.866 290.8 301.333 258.933 301.333 221.066C301.333 175.6 300.8 150.933 299.866 148.4C299.066 146.4 297.2 143.333 295.733 141.6C293.066 138.933 291.733 138.666 277.866 138.666C265.466 138.666 262.8 138.266 262.133 136.533C261.066 133.866 261.066 96.9331 262.133 94.2664C262.933 92.1331 266.933 93.4664 291.333 104.666Z" fill="#EC682A"/>
<path d="M103.2 77.4664L99.3331 81.4664L98.9331 127.066C98.6664 157.6 98.9331 174.266 99.9998 177.733C102.666 186.933 101.333 186.8 162.8 186.8L217.866 186.666L221.333 183.333L224.666 180V129.866V79.733L220.933 76.533L217.2 73.333H162.133H107.2L103.2 77.4664ZM206.4 130.266L206 168.666H162H118L117.6 130.266L117.333 91.9997H162H206.666L206.4 130.266Z" fill="#EC682A"/>
</svg>
