<svg width="368" height="352" viewBox="0 0 368 352" fill="none" xmlns="http://www.w3.org/2000/svg">
<path d="M290.133 21.5999C287.733 23.7332 285.867 27.4666 284.267 33.9999C282.533 40.9332 281.333 43.3332 279.6 43.3332C278.267 43.3332 275.067 39.5999 271.733 33.9999C266.667 25.8666 265.467 24.6666 261.467 24.2666C255.467 23.5999 252 27.0666 252 33.1999C252 35.8666 253.2 39.4666 254.667 41.3332C256.133 43.1999 257.333 45.1999 257.333 45.8666C257.333 46.5332 258.267 48.1332 259.467 49.4666C262.267 52.5332 260.933 55.9999 257.2 55.9999C255.733 55.9999 251.067 55.0666 247.067 53.8666C238.133 51.3332 234 52.1332 231.333 57.3332C228.267 63.3332 231.333 68.6666 239.067 70.6666C251.067 73.8666 254.667 75.0666 254.667 76.2666C254.667 76.7999 254.8 77.7332 254.8 78.2666C255.067 79.1999 249.733 82.9332 245.333 84.9332C238.533 87.8666 236 90.9332 236 95.8666C236 101.6 239.2 105.333 244.133 105.333C245.867 105.333 250.8 103.2 255.067 100.667C267.067 93.4666 269.067 94.5332 265.867 106.667C263.333 116.533 263.467 120.8 266.667 124C272.533 129.867 278.933 126.4 282.133 115.867C286.8 100.133 288.667 99.0666 294.4 108.8C300.8 119.6 302.533 121.333 307.2 121.333C312.4 121.333 316.4 117.6 316.4 112.667C316.4 110.933 314.133 105.733 311.467 101.2C304.267 89.0666 304.667 88.5332 319.733 91.4666C329.867 93.5999 330.8 93.5999 334 91.4666C336.4 89.8666 337.333 88.1332 337.333 84.9332C337.333 82.6666 336.8 79.9999 336.267 79.0666C335.067 77.0666 329.333 74.7999 320.667 72.7999C311.067 70.6666 311.067 67.1999 320.267 62.1332C333.467 54.6666 336.267 49.4666 330 43.3332C325.6 38.7999 323.067 39.0666 312.4 45.3332C304.533 49.8666 303.067 50.3999 301.867 48.5332C300.8 47.1999 300.667 45.0666 301.6 41.5999C304 32.2666 304.267 24.7999 302.4 22.3999C299.333 18.3999 294.133 18.1332 290.133 21.5999Z" fill="#EC682A"/>
<path d="M136.133 23.4667C132.933 27.4667 132.933 28.8 134.666 42C136.266 53.2 139.2 75.8667 141.866 98.6667C142.933 107.867 144.133 116.933 144.533 118.667C145.066 120.533 144.933 122.667 144.4 123.467C143.733 124.133 138.266 127.467 132 130.533C125.733 133.733 116.533 138.667 111.333 141.333C103.466 145.6 76.6662 159.6 63.5995 166.267C53.9995 171.333 55.7329 184 66.1329 184C68.5329 184 76.7995 180.533 86.1329 175.6C107.733 164.133 140.4 146.933 149.066 142.533C157.2 138.4 153.466 138 210.666 150.667C232.666 155.6 245.6 158.4 251.333 159.467C258.933 160.933 264.4 151.333 259.6 144.8C257.6 142.133 254.4 141.2 220.666 134C203.066 130.133 194.533 128.4 184 126C178.533 124.8 172.133 123.467 169.733 123.067C167.333 122.667 164.933 121.733 164.266 120.8C163.6 120 162.266 113.6 161.466 106.667C160.533 99.7333 159.066 87.3333 158 79.3333C156.933 71.2 155.2 57.2 154.133 48C151.866 29.4667 150.266 22.6667 147.733 21.0667C144.133 18.9333 138.933 20 136.133 23.4667Z" fill="#EC682A"/>
<path d="M150 160.667L146.666 163.867V241.067V318.4L143.733 319.2C138.933 320.4 119.2 320.133 115.466 318.667C113.6 318 110.266 314.8 108 311.733C105.733 308.533 102.266 305.333 100.4 304.533C96.933 303.067 88.3997 304.133 86.7997 306.267C86.3997 306.8 84.3997 309.867 82.2663 313.067C79.1997 317.867 77.9997 318.667 73.9997 318.667C70.6663 318.667 68.7997 317.733 67.0663 315.2C59.9997 305.067 57.9997 303.6 51.8663 303.733C45.8663 304 43.4663 305.733 36.933 315.2C35.4663 317.333 33.333 318.667 31.1997 318.667C26.933 318.667 21.333 324.267 21.333 328.667C21.333 330.533 22.6663 333.333 24.133 334.8C28.2663 338.933 38.2663 337.733 46.133 332.267L51.9997 328L57.8663 332.133C67.733 339.2 81.733 339.067 89.8663 332C95.1997 327.2 96.133 327.2 99.4663 330.8C105.333 337.467 103.066 337.333 221.733 337.333C327.733 337.333 333.066 337.2 335.066 334.933C338.133 331.6 337.866 324.933 334.8 322.133C332.533 320.133 329.066 319.867 304.933 320C289.466 320 276.266 319.467 274.266 318.8L270.666 317.333V288.667V260L274.133 257.867C276 256.533 279.466 254.667 281.733 253.467C290.666 248.933 289.466 237.067 280 236.267C276.266 236 267.066 240 232 257.6C195.2 276.133 188.533 280 187.466 283.067C185.6 288.133 187.866 293.467 192.4 295.067C195.733 296.133 199.466 294.667 223.466 282.667C238.4 275.2 251.2 269.6 252 270C252.8 270.533 253.333 279.867 253.333 294C253.333 315.6 253.2 317.333 250.8 318.667C247.2 320.533 171.466 320.533 167.866 318.667C165.466 317.333 165.333 314.933 165.333 240C165.333 164.4 165.333 162.667 162.666 160C159.066 156.4 153.866 156.667 150 160.667Z" fill="#EC682A"/>
<path d="M312.4 217.467C301.333 222.933 298.666 224.8 297.466 228.133C295.066 234.933 298.533 240 305.466 240C309.066 240 330.533 229.733 334.4 226.267C340.266 220.8 336.933 210.667 329.2 210.667C327.333 210.667 319.733 213.733 312.4 217.467Z" fill="#EC682A"/>
<path d="M75.4662 221.733C73.5996 223.6 71.9996 227.333 71.4662 230.8C70.3996 238.133 69.4662 239.6 65.1996 240.667C62.6662 241.333 60.6662 240.533 56.7996 237.467C50.5329 232.533 45.0662 232.133 42.1329 236.267C38.3996 241.467 39.4662 245.6 45.9996 252C53.0662 259.067 53.5996 263.467 47.7329 266.267C45.5996 267.2 42.3996 268.8 40.3996 269.733C37.3329 271.067 36.5329 272.4 36.2662 276.933C35.8662 281.733 36.3996 282.8 39.1996 284.8C41.1996 286 43.9996 286.667 45.7329 286.267C47.3329 285.867 50.9329 284.933 53.5996 284.267C57.4662 283.2 59.1996 283.467 62.3996 285.333C66.2662 287.733 66.3996 288 65.7329 296.267C64.9329 305.867 66.5329 308.4 73.3329 308.4C78.5329 308.4 82.3996 304.667 83.3329 298.8C85.3329 286.4 90.1329 283.867 98.5329 290.533C104.933 295.6 109.6 295.867 113.2 291.333C116.933 286.533 115.733 281.6 109.2 275.733C104.666 271.6 103.866 270.133 104.266 266.533C104.666 262.667 105.333 262 110.666 260.267C117.6 257.867 119.866 255.467 120 250.267C120 244.933 115.466 240.933 110.266 241.867C97.3329 244.4 94.6662 244.4 91.9996 242C89.8662 240 89.3329 238.133 89.5996 231.733C89.9996 224.8 89.5996 223.467 86.7996 221.2C82.6662 217.867 79.1996 218 75.4662 221.733ZM82.3996 258.133C88.1329 262.133 84.5329 272 77.4662 272C74.7996 272 69.3329 266.667 69.3329 264.133C69.3329 261.467 74.6662 256 77.3329 256C78.3996 256 80.7996 256.933 82.3996 258.133Z" fill="#EC682A"/>
</svg>
