<svg width="380" height="360" viewBox="0 0 380 360" fill="none" xmlns="http://www.w3.org/2000/svg">
<path d="M179.333 22.533C165.066 24.933 156.266 27.0663 145.333 30.933C139.066 33.0663 132.933 35.1997 131.733 35.5997C130.4 35.9997 129.333 36.933 129.333 37.733C129.333 40.933 135.2 53.333 136.8 53.333C137.6 53.333 141.066 52.133 144.4 50.6663C147.733 49.1997 156.266 46.3997 163.466 44.533C175.066 41.333 179.2 40.933 198 40.933C214.4 40.933 221.6 41.4663 229.333 43.333C243.066 46.7997 259.733 53.4663 270.666 59.8663C275.733 62.933 280.4 65.333 281.066 65.333C282.266 65.333 290.666 53.333 290.666 51.733C290.666 50.533 274.666 40.6663 268 37.733C262.533 35.333 255.333 32.3997 246.933 29.1997C232.8 23.733 195.2 19.9997 179.333 22.533Z" fill="#EC682A"/>
<path d="M77.733 76.3996C62.6664 92.2663 47.733 122.933 41.8664 150C37.333 170.4 38.6664 201.733 44.933 224.133L46.933 231.6L51.8664 229.866C54.533 228.933 57.5997 228.133 58.6664 228C63.5997 227.866 63.9997 226.266 61.1997 215.333C56.2664 195.6 56.533 165.2 61.5997 145.333C66.133 128.133 76.6664 107.466 88.6664 92.1329C91.9997 87.9996 94.6664 83.8663 94.6664 83.1996C94.6664 81.9996 92.2664 79.8663 83.8664 73.7329C82.133 72.3996 81.0664 72.7996 77.733 76.3996Z" fill="#EC682A"/>
<path d="M212.933 82.933C211.066 85.333 203.999 96.6663 197.066 108C190.133 119.333 177.066 140.666 167.999 155.333C136.933 206 138.399 203.2 139.866 207.066C141.599 211.6 143.466 212 165.999 212.4C181.733 212.666 184.533 212.933 184.266 214.666C183.999 215.733 182.933 220.533 181.999 225.333C181.066 230.133 179.199 238.533 177.999 244C169.733 280.933 169.733 283.2 177.599 282.4C182.266 282 181.866 282.4 211.466 234C219.866 220 233.733 197.6 241.999 184C250.399 170.4 257.333 158 257.333 156.4C257.333 151.6 253.333 150.666 231.999 150.666H211.733L212.666 144.933C213.466 139.733 216.133 127.466 220.666 107.333C225.466 86.533 225.866 82.933 224.133 80.7996C221.199 77.333 216.399 78.2663 212.933 82.933ZM202.666 129.6C202.666 130.533 201.466 136.133 199.999 142C194.666 163.333 195.333 164 219.199 164C228.933 164 237.199 164.4 237.733 164.8C238.133 165.2 234.533 172 229.733 179.866C224.799 187.6 215.466 202.8 208.933 213.6C202.133 224.933 196.133 233.333 195.066 233.333C193.599 233.333 193.199 232.533 193.866 230.266C194.399 228.666 195.333 224.266 196.133 220.666C196.933 216.933 198.133 211.733 198.799 209.066C199.733 205.466 199.599 203.333 198.399 201.333C196.799 198.8 195.333 198.666 177.466 198.666C159.333 198.666 158.399 198.533 159.066 196.133C159.599 194 174.266 169.733 196.933 132.933C199.999 128 202.666 126.533 202.666 129.6Z" fill="#EC682A"/>
<path d="M323.333 97.4667C319.733 99.4667 316.666 101.733 316.666 102.267C316.666 102.8 320.133 110.267 324.266 118.667C331.999 134.267 333.466 138.8 336.666 155.333C340.133 172.8 340.399 182.533 337.999 198.667C333.066 231.733 321.199 256.133 298.799 279.067C292.533 285.6 284.266 292.933 280.399 295.467C276.533 298 273.199 300.533 272.799 301.2C271.999 302.4 281.199 316 282.666 316C285.066 316 301.466 302.667 311.466 292.8C332.799 271.333 345.999 246.8 354.266 213.333C356.133 205.6 356.666 198.133 356.666 180.667C356.666 155.6 355.333 148.133 347.199 125.333C342.799 113.467 332.399 93.2 330.799 93.4667C330.399 93.6 327.066 95.3333 323.333 97.4667Z" fill="#EC682A"/>
<path d="M81.6 275.6C78.5333 278.267 76 281.2 76 282.133C76 284.667 93.8667 302 104.533 310C120.533 321.733 141.067 331.067 164 336.8C174 339.333 204.933 340.8 218 339.333L226.8 338.4L226.4 329.6L226 320.667L220.667 320.8C217.733 320.8 210.667 321.333 204.8 321.867C185.2 323.867 156.8 317.867 135.6 307.2C123.2 300.933 107.6 289.6 98 280C92.9333 274.933 88.4 270.667 88 270.667C87.6 270.667 84.6667 272.933 81.6 275.6Z" fill="#EC682A"/>
</svg>
